<svg xmlns="http://www.w3.org/2000/svg" width="23.014" height="16.042" viewBox="0 0 23.014 16.042">
  <path id="icon" d="M1505.04,5106.058a2.114,2.114,0,0,1-1.452-.536,1.663,1.663,0,0,1-.6-1.288v-9.046a6.651,6.651,0,0,0,1.3.99q4.648,2.8,6.383,3.932.73.479,1.187.746a7.94,7.94,0,0,0,1.214.547,4.109,4.109,0,0,0,1.413.278h.026a4.1,4.1,0,0,0,1.412-.278,7.9,7.9,0,0,0,1.215-.547q.456-.267,1.187-.746,2.184-1.4,6.4-3.932a6.906,6.906,0,0,0,1.284-.99v9.046a1.658,1.658,0,0,1-.6,1.288,2.108,2.108,0,0,1-1.451.536Zm9.452-5.834h-.013a2.236,2.236,0,0,1-.642-.1,4.1,4.1,0,0,1-.738-.306q-.392-.206-.669-.372c-.183-.109-.415-.254-.693-.433s-.46-.293-.546-.347q-1.169-.729-3.364-2.079t-2.633-1.624a6.073,6.073,0,0,1-1.5-1.316,2.5,2.5,0,0,1-.707-1.556,2.134,2.134,0,0,1,.533-1.481,1.942,1.942,0,0,1,1.522-.592h18.9a2.115,2.115,0,0,1,1.444.536,1.653,1.653,0,0,1,.61,1.288,2.782,2.782,0,0,1-.629,1.72,5.83,5.83,0,0,1-1.566,1.4q-4.828,2.974-6.01,3.7-.129.081-.546.347c-.279.179-.51.324-.693.433s-.408.234-.668.372a4.148,4.148,0,0,1-.739.306,2.235,2.235,0,0,1-.642.1Z" transform="translate(-1502.984 -5090.015)" fill="#00509f"/>
</svg>
