<svg xmlns="http://www.w3.org/2000/svg" width="19.04" height="12.001" viewBox="0 0 19.04 12.001">
  <path id="arrow" d="M925.568,2283.132l-.916.917a1.567,1.567,0,0,1-1.112.452,1.5,1.5,0,0,1-1.1-.452l-5.939-5.94-5.94,5.939a1.5,1.5,0,0,1-1.1.452,1.565,1.565,0,0,1-1.112-.452l-.9-.917a1.518,1.518,0,0,1-.464-1.112,1.453,1.453,0,0,1,.464-1.1l7.956-7.956a1.453,1.453,0,0,1,1.1-.464,1.518,1.518,0,0,1,1.112.464l7.956,7.956a1.5,1.5,0,0,1,.452,1.1A1.565,1.565,0,0,1,925.568,2283.132Z" transform="translate(-906.98 -2272.499)" fill="#fecb16"/>
</svg>
