<svg xmlns="http://www.w3.org/2000/svg" width="19.04" height="12.001" viewBox="0 0 19.04 12.001">
  <path id="arrow" d="M925.568,2460.868l-.916-.917a1.565,1.565,0,0,0-1.112-.452,1.5,1.5,0,0,0-1.1.452l-5.939,5.939-5.94-5.939a1.5,1.5,0,0,0-1.1-.452,1.566,1.566,0,0,0-1.112.452l-.9.917a1.518,1.518,0,0,0-.464,1.112,1.453,1.453,0,0,0,.464,1.1l7.956,7.956a1.453,1.453,0,0,0,1.1.464,1.518,1.518,0,0,0,1.112-.464l7.956-7.956a1.5,1.5,0,0,0,.452-1.1A1.565,1.565,0,0,0,925.568,2460.868Z" transform="translate(-906.98 -2459.5)" fill="#e1e1e1"/>
</svg>
