<svg xmlns="http://www.w3.org/2000/svg" width="17.04" height="15.107" viewBox="0 0 17.04 15.107">
  <path id="icon" d="M1474.45,744.073a1.231,1.231,0,0,1-.922-.409,1.349,1.349,0,0,1-.389-.965v-4.12a1.353,1.353,0,0,1,.389-.966,1.233,1.233,0,0,1,.922-.408h5.243a1.231,1.231,0,0,1,.922.408,1.353,1.353,0,0,1,.389.966v4.12a1.349,1.349,0,0,1-.389.965,1.229,1.229,0,0,1-.922.409Zm-9.175,0a1.229,1.229,0,0,1-.922-.409,1.346,1.346,0,0,1-.39-.965v-4.12a1.35,1.35,0,0,1,.39-.966,1.231,1.231,0,0,1,.922-.408h5.243a1.231,1.231,0,0,1,.922.408,1.353,1.353,0,0,1,.39.966v4.12a1.35,1.35,0,0,1-.39.965,1.228,1.228,0,0,1-.922.409Zm9.175-8.24a1.234,1.234,0,0,1-.922-.408,1.351,1.351,0,0,1-.389-.966V730.34a1.351,1.351,0,0,1,.389-.966,1.233,1.233,0,0,1,.922-.408h5.243a1.231,1.231,0,0,1,.922.408,1.351,1.351,0,0,1,.389.966v4.119a1.351,1.351,0,0,1-.389.966,1.231,1.231,0,0,1-.922.408Zm-9.175,0a1.231,1.231,0,0,1-.922-.408,1.349,1.349,0,0,1-.39-.966V730.34a1.349,1.349,0,0,1,.39-.966,1.231,1.231,0,0,1,.922-.408h5.243a1.231,1.231,0,0,1,.922.408,1.352,1.352,0,0,1,.39.966v4.119a1.352,1.352,0,0,1-.39.966,1.231,1.231,0,0,1-.922.408Z" transform="translate(-1463.964 -728.967)" fill="#c2c2c2"/>
</svg>
