<svg xmlns="http://www.w3.org/2000/svg" width="14.928" height="10.845" viewBox="0 0 14.928 10.845">
  <path id="mail" d="M377.333,5142a1.331,1.331,0,0,1-.941-.363,1.141,1.141,0,0,1-.392-.87v-6.116a4.409,4.409,0,0,0,.841.67q3.016,1.895,4.14,2.657c.317.215.574.384.77.5a4.782,4.782,0,0,0,.787.369,2.558,2.558,0,0,0,.916.189h.017a2.547,2.547,0,0,0,.916-.189,4.732,4.732,0,0,0,.787-.369c.2-.12.454-.289.77-.5q1.417-.948,4.149-2.657a4.56,4.56,0,0,0,.834-.67v6.116a1.146,1.146,0,0,1-.392.87,1.331,1.331,0,0,1-.941.363Zm6.131-3.944h-.009a1.408,1.408,0,0,1-.416-.069,2.721,2.721,0,0,1-.48-.208c-.169-.093-.314-.175-.432-.25s-.27-.171-.45-.293l-.354-.235q-.759-.491-2.182-1.405l-1.709-1.1a4.037,4.037,0,0,1-.974-.891,1.723,1.723,0,0,1-.458-1.052,1.477,1.477,0,0,1,.346-1,1.234,1.234,0,0,1,.987-.4h12.262a1.344,1.344,0,0,1,.937.361,1.141,1.141,0,0,1,.4.871,1.932,1.932,0,0,1-.409,1.163,3.807,3.807,0,0,1-1.016.947l-3.9,2.5c-.055.036-.174.114-.354.235s-.332.218-.45.293-.265.158-.434.25a2.711,2.711,0,0,1-.479.208,1.416,1.416,0,0,1-.417.069Z" transform="translate(-376 -5131.155)" fill="#636363"/>
</svg>
