<svg xmlns="http://www.w3.org/2000/svg" width="14.69" height="14.691" viewBox="0 0 14.69 14.691">
  <path id="phone" d="M390.814,5101.037q-.063-.188-.793-.553-.2-.115-.563-.312t-.663-.366q-.3-.167-.558-.323c-.028-.021-.115-.082-.261-.183a2.886,2.886,0,0,0-.371-.224.679.679,0,0,0-.3-.074.867.867,0,0,0-.521.3,5.115,5.115,0,0,0-.574.646,6.3,6.3,0,0,1-.553.647.794.794,0,0,1-.48.3.7.7,0,0,1-.235-.052c-.094-.035-.165-.065-.214-.089s-.132-.073-.25-.146l-.2-.12a10.337,10.337,0,0,1-4.267-4.268q-.011-.021-.12-.2t-.146-.25a2.294,2.294,0,0,1-.089-.214.7.7,0,0,1-.052-.234.8.8,0,0,1,.3-.48,6.26,6.26,0,0,1,.647-.553,5.084,5.084,0,0,0,.647-.574.865.865,0,0,0,.3-.521.681.681,0,0,0-.073-.3,2.843,2.843,0,0,0-.224-.37c-.1-.146-.162-.233-.183-.261q-.156-.261-.323-.559t-.365-.663q-.2-.365-.313-.563c-.244-.487-.428-.75-.553-.792a.581.581,0,0,0-.219-.032,3.428,3.428,0,0,0-.736.1,4.205,4.205,0,0,0-.715.219,2.8,2.8,0,0,0-1.106,1.273,3.867,3.867,0,0,0-.5,2.488,4.459,4.459,0,0,0,.13.6c.063.223.113.388.151.5s.109.3.214.58.167.449.188.511a9.478,9.478,0,0,0,.866,1.826,17.532,17.532,0,0,0,5.008,5.009,9.487,9.487,0,0,0,1.826.866c.063.021.233.083.511.188s.471.176.579.215.273.087.5.151a4.624,4.624,0,0,0,.6.13,4.094,4.094,0,0,0,.548.036,4.044,4.044,0,0,0,1.941-.532,2.794,2.794,0,0,0,1.273-1.105,4.125,4.125,0,0,0,.219-.714,3.438,3.438,0,0,0,.1-.735A.578.578,0,0,0,390.814,5101.037Z" transform="translate(-376.155 -5089.654)" fill="#636363"/>
</svg>
