<svg xmlns="http://www.w3.org/2000/svg" width="19.004" height="15.098" viewBox="0 0 19.004 15.098">
  <path id="icon" d="M1523.8,744.065a.975.975,0,0,1-.722-.3,1,1,0,0,1-.3-.729v-2.059a1,1,0,0,1,.3-.729.979.979,0,0,1,.722-.3h10.181a.977.977,0,0,1,.721.3,1,1,0,0,1,.3.729v2.059a1,1,0,0,1-.3.729.972.972,0,0,1-.721.3Zm-6.788,0a.973.973,0,0,1-.721-.3,1,1,0,0,1-.3-.729v-2.059a1,1,0,0,1,.3-.729.976.976,0,0,1,.721-.3h3.394a.978.978,0,0,1,.721.3,1,1,0,0,1,.3.729v2.059a1,1,0,0,1-.3.729.975.975,0,0,1-.721.3Zm6.788-5.491a.978.978,0,0,1-.722-.3,1,1,0,0,1-.3-.729v-2.059a1,1,0,0,1,.3-.729.978.978,0,0,1,.722-.3h10.181a.976.976,0,0,1,.721.3,1,1,0,0,1,.3.729v2.059a1,1,0,0,1-.3.729.975.975,0,0,1-.721.3Zm-6.788,0a.975.975,0,0,1-.721-.3,1,1,0,0,1-.3-.729v-2.059a1,1,0,0,1,.3-.729.975.975,0,0,1,.721-.3h3.394a.977.977,0,0,1,.721.3,1,1,0,0,1,.3.729v2.059a1,1,0,0,1-.3.729.977.977,0,0,1-.721.3Zm6.788-5.489a.979.979,0,0,1-.722-.3,1,1,0,0,1-.3-.73V730a1,1,0,0,1,.3-.729.975.975,0,0,1,.722-.3h10.181a.973.973,0,0,1,.721.3,1,1,0,0,1,.3.729v2.058a1,1,0,0,1-.3.73.977.977,0,0,1-.721.3Zm-6.788,0a.976.976,0,0,1-.721-.3,1,1,0,0,1-.3-.73V730a1,1,0,0,1,.3-.73.975.975,0,0,1,.721-.3h3.394a.977.977,0,0,1,.721.3,1,1,0,0,1,.3.73v2.058a1,1,0,0,1-.3.73.978.978,0,0,1-.721.3Z" transform="translate(-1515.999 -728.967)" fill="#c2c2c2"/>
</svg>
