<svg xmlns="http://www.w3.org/2000/svg" width="14.497" height="14.496" viewBox="0 0 14.497 14.496">
  <path id="search_copy" data-name="search copy" d="M603.426,426.849l-2.988-2.988a5.965,5.965,0,0,0,1.081-3.476,6.032,6.032,0,0,0-.483-2.383,6.006,6.006,0,0,0-3.267-3.267,6.117,6.117,0,0,0-4.766,0A6.005,6.005,0,0,0,589.735,418a6.112,6.112,0,0,0,0,4.765A6.005,6.005,0,0,0,593,426.034a6.123,6.123,0,0,0,5.859-.6l2.988,2.979a1.036,1.036,0,0,0,.784.331,1.115,1.115,0,0,0,.793-1.9Zm-5.284-3.707a3.891,3.891,0,1,1,1.146-2.758A3.761,3.761,0,0,1,598.142,423.142Z" transform="translate(-589.252 -414.252)" fill="#b8b8b8"/>
</svg>
