<svg xmlns="http://www.w3.org/2000/svg" width="920" height="143" viewBox="0 0 920 143">
  <g id="bg_txt" data-name="bg txt" transform="translate(-476 -2201.999)" fill="none" stroke-linejoin="round">
    <path d="M485.484,2202h901.031a9.752,9.752,0,0,1,9.484,10v110a9.752,9.752,0,0,1-9.484,10H950.227c-4.9,0-9.326,13-14.227,13-4.743,0-9.96-13-14.7-13H485.484A9.752,9.752,0,0,1,476,2322V2212A9.753,9.753,0,0,1,485.484,2202Z" stroke="none"/>
    <path d="M 485.484375 2203.998779296875 C 481.357421875 2203.998779296875 477.9998779296875 2207.587646484375 477.9998779296875 2211.998779296875 L 477.9998779296875 2321.99853515625 C 477.9998779296875 2326.40966796875 481.357421875 2329.99853515625 485.484375 2329.99853515625 L 921.2989501953125 2329.99853515625 C 924.6563720703125 2329.99853515625 927.3662109375 2333.535888671875 930.2352905273438 2337.281005859375 C 931.418701171875 2338.82568359375 932.6424560546875 2340.423095703125 933.7757568359375 2341.5458984375 C 935.0989379882812 2342.856689453125 935.77197265625 2342.998291015625 936 2342.998291015625 C 936.2938842773438 2342.998291015625 936.9658813476562 2342.8134765625 938.16552734375 2341.5751953125 C 939.2437744140625 2340.462158203125 940.3856201171875 2338.87060546875 941.4898681640625 2337.33154296875 C 942.6783447265625 2335.675048828125 943.9071655273438 2333.962158203125 945.1902465820312 2332.637939453125 C 946.9105834960938 2330.86181640625 948.55810546875 2329.99853515625 950.226806640625 2329.99853515625 L 1386.515380859375 2329.99853515625 C 1390.642333984375 2329.99853515625 1393.999877929688 2326.40966796875 1393.999877929688 2321.99853515625 L 1393.999877929688 2211.998779296875 C 1393.999877929688 2207.587646484375 1390.642333984375 2203.998779296875 1386.515380859375 2203.998779296875 L 485.484375 2203.998779296875 M 485.484375 2201.998779296875 L 1386.515380859375 2201.998779296875 C 1391.753662109375 2201.998779296875 1395.999877929688 2206.47607421875 1395.999877929688 2211.998779296875 L 1395.999877929688 2321.99853515625 C 1395.999877929688 2327.52197265625 1391.753662109375 2331.99853515625 1386.515380859375 2331.99853515625 C 1386.515380859375 2331.99853515625 1170.643798828125 2331.99853515625 950.226806640625 2331.99853515625 C 945.327880859375 2331.99853515625 940.9009399414062 2344.998291015625 936 2344.998291015625 C 931.2568359375 2344.998291015625 926.0397338867188 2331.99853515625 921.2989501953125 2331.99853515625 C 701.046630859375 2331.99853515625 485.484375 2331.99853515625 485.484375 2331.99853515625 C 480.246337890625 2331.99853515625 475.9998779296875 2327.52197265625 475.9998779296875 2321.99853515625 L 475.9998779296875 2211.998779296875 C 475.9998779296875 2206.47607421875 480.246337890625 2201.998779296875 485.484375 2201.998779296875 Z" stroke="none" fill="#00509f"/>
  </g>
</svg>
